# xmcd
#
# Track frame offsets: 
#        150
#        13182
#        24324
#        39446
#        54386
#        65450
#        77252
#        90880
#        103537
#        116310
#        129883
#        142996
#        155813
#        170255
#        181992
#        196470
#        210171
#        223207
#        236178
#        247504
#
# Disc length: 3476 seconds
#
# Revision: 0
# Processed by: cddbd v1.4b42PL1 Copyright (c) Steve Scherf et al.
# Submitted via: ExactAudioCopy v0.90a11
#
DISCID=f50d9214
DTITLE=Muddy Waters - They Call Me Muddy Waters - 20 Blues Classics
DYEAR=1900
DGENRE=
TTITLE0=Mannish Boy
TTITLE1=Crawlin' Kingsnake
TTITLE2=They Call Me Muddy Waters
TTITLE3=Standing around Crying
TTITLE4=She's All Right
TTITLE5=My Life Is Ruined
TTITLE6=I Want You to Love Me
TTITLE7=(I'm Your) Hoochie Coochie Man
TTITLE8=I Just Want to Make Love to You
TTITLE9=I'm Ready
TTITLE10=She Moves Me
TTITLE11=Forty Days and Forty Nights
TTITLE12=Just to Be with You
TTITLE13=Walking Through the Park
TTITLE14=Still a Fool
TTITLE15=Lonesome Road Blues
TTITLE16=Mopper's Blues
TTITLE17=Southbound Train
TTITLE18=Just a Dream (on My Mind)
TTITLE19=I Feel So Good
EXTD=Compilation cheapo CD for supermarkets
EXTT0=
EXTT1=
EXTT2=
EXTT3=
EXTT4=
EXTT5=
EXTT6=
EXTT7=
EXTT8=
EXTT9=
EXTT10=
EXTT11=
EXTT12=
EXTT13=
EXTT14=
EXTT15=
EXTT16=
EXTT17=
EXTT18=
EXTT19=
PLAYORDER=
